<?xml version="1.0" encoding="utf-8"?>
<!-- Generator: Adobe Illustrator 19.0.0, SVG Export Plug-In . SVG Version: 6.00 Build 0)  -->
<svg version="1.1" id="Capa_1" xmlns="http://www.w3.org/2000/svg" xmlns:xlink="http://www.w3.org/1999/xlink" x="0px" y="0px"
	 viewBox="0 0 55.4 55" style="enable-background:new 0 0 55.4 55;" xml:space="preserve">
<style type="text/css">
	.st0{fill-rule:evenodd;clip-rule:evenodd;fill:#6586C4;}
</style>
<path id="XMLID_225_" class="st0" d="M2,55c-0.6,0-1.1-0.2-1.4-0.6C0.2,54,0,53.5,0,53V1.6c0-0.4,0.3-0.7,0.7-0.7c0.9,0,1.8,0,2.7,0
	C3.7,0.9,4,1.2,4,1.6V51h49.4c0.4,0,0.7,0.3,0.7,0.7c0,0.9,0,1.8,0,2.7c0,0.4-0.3,0.7-0.7,0.7H2L2,55z M7.3,42.3
	c-0.8,1-0.6,2.5,0.4,3.3L9.5,47c1,0.8,2.5,0.6,3.3-0.4l11.7-15.1l13.8,0c0.6,0,1.2-0.2,1.7-0.5c0.5-0.3,0.9-0.7,1.2-1.1l7-12.3
	l0.1,4.1c0,1.3,1.2,2.3,2.5,2.3l2.2-0.1c1.3,0,2.3-1.2,2.3-2.5C55.1,14.2,54.9,7.1,54.6,0c-6.4,3.1-12.8,6.3-19.2,9.4
	c-1.2,0.6-1.7,2-1.1,3.2l1,2c0.6,1.2,2,1.7,3.2,1.1l3.8-1.9l-6,10.6l-13.5,0c-0.5,0-1.1,0.1-1.5,0.3c-0.5,0.2-0.9,0.6-1.2,1
	L7.3,42.3z"/>
</svg>
