<?xml version="1.0" encoding="utf-8"?>
<!-- Generator: Adobe Illustrator 19.0.0, SVG Export Plug-In . SVG Version: 6.00 Build 0)  -->
<svg version="1.1" id="Capa_1" xmlns="http://www.w3.org/2000/svg" xmlns:xlink="http://www.w3.org/1999/xlink" x="0px" y="0px"
	 viewBox="0 0 64.9 55" style="enable-background:new 0 0 64.9 55;" xml:space="preserve">
<style type="text/css">
	.st0{fill-rule:evenodd;clip-rule:evenodd;fill:#6586C4;}
</style>
<path id="XMLID_228_" class="st0" d="M55.5,31.4c0,1.1,0,2.1,0,3.2c0,0.3-0.2,0.5-0.5,0.5h-0.7c-0.3,0-0.5-0.2-0.5-0.5v-1.9
	c0-0.3-0.2-0.5-0.5-0.5H33.5c0,0.8,0,1.6,0,2.4c0,0.3-0.2,0.5-0.5,0.5h-0.7c-0.3,0-0.5-0.2-0.5-0.5v-2.4H12.1
	c-0.3,0-0.5,0.2-0.5,0.5v1.9c0,0.3-0.2,0.5-0.5,0.5h-0.7c-0.3,0-0.5-0.2-0.5-0.5v-3.2c0-0.6,0.5-1.1,1.1-1.1h20.9c0-0.8,0-1.6,0-2.4
	c0-0.3,0.2-0.5,0.5-0.5H33c0.3,0,0.5,0.2,0.5,0.5v2.4c7,0,14,0,20.9,0C55.1,30.3,55.5,30.8,55.5,31.4L55.5,31.4z M49.6,41.4h10
	c0.6,0,1.1,0.5,1.1,1.1l0,0c0,0.6-0.5,1.1-1.1,1.1h-10c-0.6,0-1.1-0.5-1.1-1.1l0,0C48.6,41.9,49,41.4,49.6,41.4L49.6,41.4z
	 M49.6,47.6h10c0.6,0,1.1,0.5,1.1,1.1l0,0c0,0.6-0.5,1.1-1.1,1.1h-10c-0.6,0-1.1-0.5-1.1-1.1l0,0C48.6,48.1,49,47.6,49.6,47.6
	L49.6,47.6z M27.7,41.4h10c0.6,0,1.1,0.5,1.1,1.1l0,0c0,0.6-0.5,1.1-1.1,1.1h-10c-0.6,0-1.1-0.5-1.1-1.1l0,0
	C26.6,41.9,27.1,41.4,27.7,41.4L27.7,41.4z M27.7,47.6h10c0.6,0,1.1,0.5,1.1,1.1l0,0c0,0.6-0.5,1.1-1.1,1.1h-10
	c-0.6,0-1.1-0.5-1.1-1.1l0,0C26.6,48.1,27.1,47.6,27.7,47.6L27.7,47.6z M5.3,41.4h10c0.6,0,1.1,0.5,1.1,1.1l0,0
	c0,0.6-0.5,1.1-1.1,1.1h-10c-0.6,0-1.1-0.5-1.1-1.1l0,0C4.2,41.9,4.7,41.4,5.3,41.4L5.3,41.4z M5.3,47.6h10c0.6,0,1.1,0.5,1.1,1.1
	l0,0c0,0.6-0.5,1.1-1.1,1.1h-10c-0.6,0-1.1-0.5-1.1-1.1l0,0C4.2,48.1,4.7,47.6,5.3,47.6L5.3,47.6z M22.7,5.6h19.9
	c0.6,0,1.1,0.5,1.1,1.1l0,0c0,0.6-0.5,1.1-1.1,1.1H22.7c-0.6,0-1.1-0.5-1.1-1.1l0,0C21.6,6.1,22.1,5.6,22.7,5.6L22.7,5.6z M22.7,18
	h19.9c0.6,0,1.1,0.5,1.1,1.1l0,0c0,0.6-0.5,1.1-1.1,1.1H22.7c-0.6,0-1.1-0.5-1.1-1.1l0,0C21.6,18.5,22.1,18,22.7,18L22.7,18z
	 M22.7,11.8h19.9c0.6,0,1.1,0.5,1.1,1.1l0,0c0,0.6-0.5,1.1-1.1,1.1H22.7c-0.6,0-1.1-0.5-1.1-1.1l0,0C21.6,12.3,22.1,11.8,22.7,11.8
	L22.7,11.8z M3.4,51.6h13.7v-12H3.4V51.6L3.4,51.6z M17.7,55c0.8,0,1.5-0.3,2-0.8c0.5-0.5,0.8-1.2,0.8-2V39c0-0.8-0.3-1.5-0.8-2
	c-0.5-0.5-1.2-0.8-2-0.8H2.8c-0.8,0-1.5,0.3-2,0.8C0.3,37.5,0,38.3,0,39v13.1c0,0.8,0.3,1.5,0.8,2c0.5,0.5,1.2,0.8,2,0.8H17.7
	L17.7,55z M47.7,51.6h13.7v-12H47.7V51.6L47.7,51.6z M62.1,55c0.8,0,1.5-0.3,2-0.8c0.5-0.5,0.8-1.2,0.8-2V39c0-0.8-0.3-1.5-0.8-2
	c-0.5-0.5-1.2-0.8-2-0.8H47.2c-0.8,0-1.5,0.3-2,0.8c-0.5,0.5-0.8,1.2-0.8,2v13.1c0,0.8,0.3,1.5,0.8,2c0.5,0.5,1.2,0.8,2,0.8H62.1
	L62.1,55z M25.8,51.6h13.7v-12H25.8V51.6L25.8,51.6z M40.1,55c0.8,0,1.5-0.3,2-0.8c0.5-0.5,0.8-1.2,0.8-2V39c0-0.8-0.3-1.5-0.8-2
	c-0.5-0.5-1.2-0.8-2-0.8H25.2c-0.8,0-1.5,0.3-2,0.8c-0.5,0.5-0.8,1.2-0.8,2v13.1c0,0.8,0.3,1.5,0.8,2c0.5,0.5,1.2,0.8,2,0.8H40.1
	L40.1,55z M20,22.3h25.3V3.4H20V22.3L20,22.3z M45.4,25.8c0.9,0,1.7-0.4,2.4-1l0,0c0.6-0.6,1-1.4,1-2.4V3.4c0-0.9-0.4-1.8-1-2.4
	c-0.6-0.6-1.4-1-2.4-1H19.9c-0.9,0-1.8,0.4-2.4,1l0,0c-0.6,0.6-1,1.4-1,2.4v19.1c0,0.9,0.4,1.8,1,2.4l0,0c0.6,0.6,1.4,1,2.4,1H45.4z
	"/>
</svg>
