<?xml version="1.0" encoding="utf-8"?>
<!-- Generator: Adobe Illustrator 19.0.0, SVG Export Plug-In . SVG Version: 6.00 Build 0)  -->
<svg version="1.1" id="Capa_1" xmlns="http://www.w3.org/2000/svg" xmlns:xlink="http://www.w3.org/1999/xlink" x="0px" y="0px"
	 viewBox="0 0 57.7 55" style="enable-background:new 0 0 57.7 55;" xml:space="preserve">
<style type="text/css">
	.st0{fill-rule:evenodd;clip-rule:evenodd;fill:#6586C4;}
</style>
<path id="XMLID_215_" class="st0" d="M28.9,27.6c-2.5,0-4.9-1.7-6.8-4.2c-1.8-2.5-3-5.7-3-8.9v-0.1l0,0c0-0.2,0-0.4,0-0.6
	C19.1,6.2,17.8,0,28.9,0c11.1,0,9.8,6.2,9.8,13.7c0,0.2,0,0.4,0,0.6l0,0v0.1c0,3.2-1.2,6.4-3,8.9C33.8,25.9,31.4,27.6,28.9,27.6
	L28.9,27.6z M46,28.7c1.6,0,3.2-1.1,4.4-2.7c1.2-1.6,2-3.7,2-5.8v0l0,0c0-0.1,0-0.3,0-0.4c0-4.4,0.7-8.1-4.4-8.8
	c-0.6-0.1-1.2-0.2-1.9-0.2c-0.7,0-1.3,0.1-1.9,0.2c-5.1,0.7-4.5,4.4-4.5,8.8c0,0.1,0,0.3,0,0.4l0,0v0c0,2,0.8,4.2,2,5.8
	C42.9,27.6,44.5,28.7,46,28.7L46,28.7z M42.4,25.5c-1.1-1.4-1.8-3.3-1.8-5.2l0.4-1.5c0.1-0.5,0.1-1,0.1-1.5c0-0.6,0-1.2,0.4-1.6
	c0.2-0.8,9.1-0.8,9.2,0c0.3,0.5,0.3,1,0.4,1.6c0,0.5,0,1,0.1,1.5l0.4,1.5c0,1.8-0.7,3.7-1.8,5.2c-1,1.4-2.4,2.4-3.7,2.4
	C44.8,27.8,43.4,26.9,42.4,25.5L42.4,25.5z M11.8,28.7c1.6,0,3.2-1.1,4.4-2.7c1.2-1.6,2-3.7,2-5.8v0l0,0c0-0.1,0-0.3,0-0.4
	c0-4.5,0.7-8.2-4.6-8.8c-0.5-0.1-1.1-0.2-1.8-0.2c-0.8,0-1.4,0.1-2,0.2c-4.9,0.7-4.3,4.4-4.3,8.8c0,0.1,0,0.3,0,0.4l0,0v0
	c0,2,0.8,4.2,2,5.8C8.6,27.6,10.2,28.7,11.8,28.7L11.8,28.7z M8.1,25.5C7,24,6.3,22.1,6.3,20.3l0.4-1.5c0.1-0.5,0.1-1,0.1-1.5
	c0-0.6,0-1.2,0.4-1.6c0.3-0.8,9.1-0.8,9.2,0c0.3,0.5,0.3,1,0.4,1.6c0,0.5,0,1,0.1,1.5l0.4,1.5c0,1.8-0.7,3.7-1.8,5.2
	c-1,1.4-2.4,2.4-3.7,2.4C10.5,27.8,9.1,26.9,8.1,25.5L8.1,25.5z M30.9,34.2l-1.1,2c-0.1,0.2-0.2,0.4-0.1,0.6l1,11.6
	c2.9-6.1,4.6-10.1,6.4-17.4c5.8,1.3,10.3,4,10.3,8.3v12.1c0,2-1.6,3.6-3.6,3.6c-9.9,0-19.7,0-29.6,0c-2,0-3.6-1.6-3.6-3.6
	c0-4,0-8.1,0-12.1c0-4.2,4.5-7,10.3-8.3c1.8,7.4,3.5,11.4,6.5,17.6l1-11.8c0-0.2,0-0.4-0.1-0.6l-1.1-2c-0.1-0.1-0.1-0.3,0-0.4
	c0.1-0.1,0.2-0.2,0.3-0.2c1.1,0,2.2,0,3.3,0c0.1,0,0.3,0.1,0.3,0.2C31,33.9,31,34.1,30.9,34.2L30.9,34.2z M57.7,43.7v-7.8
	c0-4.9-9.5-6.7-16.4-5.3c3,1.1,6,3.1,7.2,6.2c0.3,0.8,0.5,1.7,0.5,2.6l0,6.4c2.3,0,4.5,0,6.8,0C56.9,45.6,57.7,44.7,57.7,43.7
	L57.7,43.7z M0,43.7c0,1.1,0.9,2,2,2c2.3,0,4.5,0,6.8,0v-6.4c0-0.9,0.1-1.7,0.5-2.6c1.1-3.1,4.2-5,7.2-6.2C9.5,29.2,0,31,0,35.9
	C0,38.5,0,41.1,0,43.7L0,43.7z M23.2,22.6c1.6,2.2,3.7,3.6,5.7,3.6c2,0,4.1-1.5,5.7-3.6c1.6-2.2,2.7-5.2,2.8-8l-0.6-2.3
	c-0.2-0.8-0.2-1.6-0.2-2.3c0-0.9,0-1.8-0.6-2.5c-0.8-1.1-2.1-0.8-3.7-0.3c-1,0.3-2.2,0.6-3.4,0.6c-1.2,0-2.4-0.3-3.4-0.6l0,0
	c-1.5-0.4-2.8-0.8-3.7,0.3c-0.5,0.7-0.5,1.6-0.6,2.5c0,0.7,0,1.5-0.2,2.3l-0.6,2.3C20.5,17.4,21.6,20.3,23.2,22.6z"/>
</svg>
