<?xml version="1.0" encoding="utf-8"?>
<!-- Generator: Adobe Illustrator 19.0.0, SVG Export Plug-In . SVG Version: 6.00 Build 0)  -->
<svg version="1.1" id="Capa_1" xmlns="http://www.w3.org/2000/svg" xmlns:xlink="http://www.w3.org/1999/xlink" x="0px" y="0px"
	 viewBox="0 0 55 55" style="enable-background:new 0 0 55 55;" xml:space="preserve">
<style type="text/css">
	.st0{fill-rule:evenodd;clip-rule:evenodd;fill:#6586C4;}
</style>
<path id="XMLID_247_" class="st0" d="M27.5,51.3c5,0,9.7-1.6,13.6-4.2c-1.2-0.2-2.5-0.4-3.6-0.6h0c-0.7-0.2-1.4-0.3-2.1-0.5
	c0.3-0.5,0.5-1.1,0.6-1.8c0.6,0.2,1.2,0.3,1.9,0.5l0,0c1.7,0.4,3.5,0.7,5.3,0.8c0.4-0.3,0.8-0.7,1.1-1.1c2-2,3.6-4.2,4.7-6.8
	c-0.7-1.8-2-3.7-3.7-5.7c-1.9,1-4,1.9-6.4,2.6c-0.8,1.7-1.8,3.3-3,4.9c-0.3,0.4-0.6,0.8-0.9,1.1c-0.4-0.5-0.8-1-1.3-1.3
	c0.3-0.3,0.5-0.6,0.7-0.9c0.7-1,1.4-2,2-3.1c-4,1-8.7,1.6-14,1.8c1.3,1.2,2.7,2.3,4.2,3.3c-0.4,0.5-0.7,1-0.9,1.7
	c-2.2-1.4-4.2-3-6-4.9c-3.7,0-7.7-0.2-11.9-0.6c-0.4,1.2-0.7,2.4-0.9,3.7c1,1.6,2.1,3,3.4,4.4c1.8,1.8,3.9,3.3,6.2,4.5
	c3.5-0.7,6.6-1.8,9.3-3.3c0.3,0.6,0.6,1.1,1.1,1.5c-2.2,1.3-4.7,2.3-7.5,3C22.2,50.8,24.8,51.3,27.5,51.3L27.5,51.3z M39.5,18.5
	c2.2,0,4-1.8,4-4s-1.8-4-4-4c-2.2,0-4,1.8-4,4S37.3,18.5,39.5,18.5L39.5,18.5z M14.1,28.7c2.2,0,4-1.8,4-4c0-2.2-1.8-4-4-4
	c-2.2,0-4,1.8-4,4C10.1,26.9,11.9,28.7,14.1,28.7L14.1,28.7z M30.9,47.4c-2.2,0-4-1.8-4-4c0-2.2,1.8-4,4-4c2.2,0,4,1.8,4,4
	C34.9,45.6,33.1,47.4,30.9,47.4L30.9,47.4z M4.6,34c-0.6-2.1-0.9-4.2-0.9-6.5c0-4.7,1.3-9,3.7-12.7c1.6-0.1,3.2,0,4.8,0.1
	c0,1.7,0,3.4,0.2,5c0.5-0.2,1.1-0.3,1.7-0.3h0.1C14,18.1,14,16.7,14,15.1c3.1,0.4,6.2,1.2,9.2,2.2l-0.4,0.2c-1.9,1-3.7,2.1-5.3,3.3
	c0.5,0.4,0.9,0.9,1.1,1.5c1.6-1.2,3.3-2.2,5-3.1c0.7-0.3,1.3-0.6,2-0.9c2.4,1,4.6,2.1,6.8,3.3c2.6,1.5,5.1,3.1,7.2,4.9
	c-0.4,2.2-1,4.4-2,6.5c-0.5,0.1-1,0.3-1.5,0.4c-4.4,1.1-9.5,1.7-15.4,1.8c-0.2-0.3-0.4-0.5-0.7-0.8c-1.3-1.6-2.4-3.3-3.3-5.2
	c-0.5,0.3-1.1,0.6-1.7,0.7c0.9,1.9,2,3.7,3.3,5.3c-3,0-6.2-0.2-9.6-0.6c0.8-1.9,1.8-3.6,2.9-5.2c-0.6-0.3-1.1-0.7-1.5-1.1
	c-1.3,1.8-2.3,3.7-3.2,5.7l-0.2,0.4C6.2,34.2,5.4,34.1,4.6,34L4.6,34z M40,32.2c0.6-1.4,1-2.9,1.3-4.4c1,0.9,2,1.8,2.8,2.7
	C42.9,31.1,41.5,31.7,40,32.2L40,32.2z M45.8,29.5c-1.2-1.3-2.6-2.6-4.1-3.9c0.3-2.2,0.3-4.4,0-6.6c-0.6,0.3-1.2,0.4-1.8,0.5
	c0.2,1.6,0.2,3.1,0.1,4.7c-2-1.5-4.2-3-6.6-4.4c-1.7-1-3.4-1.8-5.3-2.6c2.1-0.8,4.3-1.3,6.4-1.7c-0.1-0.4-0.1-0.8-0.1-1.1
	c0-0.2,0-0.5,0.1-0.7c-3,0.5-5.9,1.4-8.8,2.5c-3.7-1.4-7.6-2.5-11.5-3c0.1-1.9,0.4-3.9,0.8-5.9c3.7-2.3,8-3.6,12.6-3.6
	c0.7,0,1.3,0,2,0.1c3,1.6,5.3,3.8,7,6.4c0.5-0.4,1.1-0.6,1.7-0.8C37.1,7.7,35.7,6,34,4.6c3.9,1.1,7.5,3.2,10.3,6.1
	c1,1,1.9,2,2.7,3.2c-0.8-0.2-1.6-0.3-2.5-0.4c0.1,0.3,0.1,0.7,0.1,1c0,0.3,0,0.6-0.1,0.9c1.3,0.2,2.6,0.5,3.9,0.9
	c1.3,2.5,2.2,5.2,2.6,8C50.1,26.2,48.3,28,45.8,29.5L45.8,29.5z M51.3,27.2v0.3c0,2.7-0.4,5.3-1.3,7.7c-0.8-1.4-1.8-2.8-3-4.3
	C48.7,29.8,50.2,28.6,51.3,27.2L51.3,27.2z M6.3,36.1C6,36,5.6,36,5.3,36c0.2,0.5,0.4,1,0.6,1.5C6,37,6.1,36.5,6.3,36.1L6.3,36.1z
	 M8.7,12.9c1.2,0,2.3,0,3.5,0.1c0.1-1.4,0.3-2.8,0.5-4.2c-0.7,0.6-1.4,1.2-2,1.8C10,11.4,9.3,12.1,8.7,12.9L8.7,12.9z M46.9,46.9
	c-5,5-11.9,8.1-19.4,8.1c-7.6,0-14.5-3.1-19.4-8.1C3.1,42,0,35.1,0,27.5C0,19.9,3.1,13,8.1,8.1C13,3.1,19.9,0,27.5,0
	C35.1,0,42,3.1,46.9,8.1c5,5,8.1,11.9,8.1,19.4C55,35.1,51.9,42,46.9,46.9z"/>
</svg>
