<?xml version="1.0" encoding="utf-8"?>
<!-- Generator: Adobe Illustrator 19.0.0, SVG Export Plug-In . SVG Version: 6.00 Build 0)  -->
<svg version="1.1" id="Capa_1" xmlns="http://www.w3.org/2000/svg" xmlns:xlink="http://www.w3.org/1999/xlink" x="0px" y="0px"
	 viewBox="0 0 960 65" style="enable-background:new 0 0 960 65;" xml:space="preserve">
<style type="text/css">
	.st0{fill:#FFFFFF;}
</style>
<path id="XMLID_258_" class="st0" d="M0,0v64.8L1.1,65l0.1-7l3,0.1L4.8,65L7,65l0-8.3l7.3-1.2l3.7,1.3V60h1v-3h2v-6h1V40h4v-6
	c0,0,0.6,1.4,1.4,2.1c0.8,0.8,1.6,1.3,1.6,1.3V40h9V26.6l5-0.7v-1.3l3.6-0.5H44v-1h4v0.3L47.9,24H50v1h4v1.3l5,0.4v32.9l5,0.1V37.3
	l6.4-0.3H73v-2.8c0,0-0.3-0.5-1.1-0.8c-0.8-0.3-0.9,0-0.9,0V32l-1-0.4v-1.3v-0.8v-0.7l2-0.6V28h1v-2h3.6l0.5-9.9l0.6,9.9h1.6l0.2-2
	l0.5,2H80v3h1v-0.4l2,0.5v0.8v0.5v0.9L82,32v1.5c0,0-1.6,0.4-1.7,1c-0.1,0.6,0.3,3.5,0.3,3.5H81v4h5v3h4v3.8l1,0.4V51h6v-3h3v3h2
	v9.1l2,0.6V61h1V38h5v-2h5v-1h2v-1h1v1h9v-1h5v-1h8v1h1v10h2v-3h3v-1h1.6l0,0h0.4v-2h6.7l0.3-0.2V40h1v1h4v0.7l2,0.8V46h13v2h1v-5h2
	v-2h1v-2h1v-1h2v-2.9l3-2.9V31h1v1.3l3,2.7v17h2v2h1v-3h1v-2.5l1-0.8V17.6l-0.5-0.6h1.5v-4h1v-2.6l7,0.4v1.5c0,0,1.7,0,4.6,0.4
	c2.9,0.4,3.4,0.8,3.4,0.8V17h1v1h-1v1l3,0.8V41h5V29.7c0,0,8.1,0.2,12.6,0.5c4.5,0.4,5.9,1.7,6.2,1.9c0.2,0.2,0.2,0.5,0.2,0.5v8.7
	l7-0.4V41h1v-7.9l6.5-0.9l0.3-4.2l0.3,4.2l2.2-0.3l2.3,0.4l0.1-4.2l-0.1,4.3l5.3,0.9v11.1l1-0.1v-1l1,0.1v1.1l3,0.1v-6.7l11-2.5V35
	h2v-3h1v-1h3.7l4.3,1.7v3.8l2,0.3v7.4l3-0.4v-9.6l3-0.5v-2.3c0,0,1-0.8,3.4-1c2.5-0.1,3.6,0.5,3.6,0.5V32h2v1.6l4,0.9V26l11.5-2h3
	l10.5,2.5V29h2v6h6v-3h8.7l2.3,0.6V34h3l3,1.7V51h1v3.9l2,1V59h3v-3h2V43.9l2-2.9V40h6.4l0,0h-1.3l-0.4-1h2.3v-2.6l0.3,1.6h0.7
	l-1.1,0.5V40h4v3.2l2-3.3V27h-1v-9h1V7.6l4-0.8V4l4.7-0.1L394,5h1v1l4-0.4v32.3l4,0.9V27h3.3l1.7-6h1v-4.8l2.6,4.6l4.4,5v24l4,1
	v-2.4l0,0V46h3V34.2v-0.6v-6.6l9.3-0.1l5.5,2.1h3.7l5.5,4.2V42h3v2h2.2l1.8,0.3v6.1l4,0.9V65h1v-2h2v1h3V23.9l1-0.7V18h2v-5h2v-2
	h2.5l2.5,0.5v3.7l3.3,1l3.7,2.5v0.7l0,0v2l0,0V24h5.8l0.2-0.2V26h2.6l-0.6,1.2v15.1l1,1.1v6.5l1-1.1l1,1.1V30.3l0.1-1.6l0.3-1.4
	l6.6-1v-2.9l0,0V21h3v-4h1v1h1v-1h3.3l1.1,1h2l-0.3,0.4v2.1l2,0.8v3.2l0,0V33h1v-4h2v-5h1v-2.1l2,0.1h2l1-1h2.9l0.8,1h2l0.8,1h0.5
	v0.1l-1,1V29h1v-2h4v2h3v2h1v-2h-1v-1h2v-1h0.2l0,0h0.8v-2h4.4l-0.4,0.5V27h1v-3h3h0.4h0.5v-1h4.3l2.3,1h1.4l0,0.6V33h1v1.3l1.3,1
	l2.3-1.3h4.1l1.4,1h0v-1h1v-1.7V32v0h-1v-1h1l0,0l0,0v-1h2v-1h4.5l1.3,1h0.2v-1h6.5l1.4,2h1.1l0.1,0.2V42h1v3h3v3h2v-8.6l0,0V34h1
	v-2h2.8l0.2-1.8V29h6.3h1.1h1.6l0.9,1h1.3l-0.2,0.5v8.1l2,2.3V43h2v-2h1v-2.8l1-0.5V36h0.1l0,0h1.9v-6h4v5h1v-3h1v4h3V23.7l1.6-0.3
	l-0.2-0.4H621v-1.5v-0.3V21h-1v-1.7c0,0,3,0.7,3.4,0.7c0.4,0-0.4,0-0.4,0v-2l3.4-1.4l0.5-4.7l-0.2,4.7L629,18V19c0,0,1.6,0.1,2,0.1
	c0.4,0,1,0.3,1,0.3v1l0,0v1l0,0V23h1l-1.2,0.2l0.2,0.5V55h2v-3.5l2-0.5h0v1h2v-2h1v-1h1v3h2V37h1v-5h2v-1h4v-2.5l2.9-0.5h3.2l0,0
	H655v-2h6v2h3.1l0,0h0.9v5h1v12h4v9h2V43h4v-2h2v-1.6l0,0V38h4v-5.7l6-0.5l0.4-2.2l0.5,2.4h0.7l0.4,0.7V37h3.8l0.2,0.3V52h1v3h5
	v-4.2l0.9-1.2l1.1,1.1V55h5V38.3l4.2-1.3h0.8v-2h5v2h2.9l0.3,0.8l-1.2,0.4V39h2.2l-0.2,0.7V44h1V33h4v1h1v-1h4v3h3.1l0.9,4.7V48h1
	v-1h2l0,0l0,0v1h5v13h2V47.6v-0.4V47h2v-3.7l1.4-0.3h2.6v2h4v1h2v2h2v1h1v-5l1-1v1h1v-1.6l0,0V41h3v-2.4l1.4-0.6h2.6v1h1v2h2v0.5
	l1.3,0.9l3.8-0.3h1.9v-1h-1v-2.9l2-0.5l8,0.2v2.8l-0.3,0.8l5.4-0.1l1,1.6l1.7-2.1h1.2v-2.4l2.4-0.6h3.6v3h2v0.4l0,0V44h2v1h1v3h10
	v1.4l0,0V51h1v2h5v2h-1.1l0,0h0.1v1h1v1h3v-4h1v-1h1v-1h3v1h4.5l-0.5,0.3V50h1v-3h3v-2h5v2h5v1h4v1h4v5h3.9l0,0h0.1v-1h2v1h2v-3.3
	l3.9-1.7h6.4l0.7,2.2V59h1v-2h3v2h6v-2h3v2h3v-2h1v-7h1v-2.6l2.7-3.8l2.3,4V50h2v7h3v1h4v-2h1v-2.2l2.2,0.2h0.8v-2h3v1h1v1h1v1h1v1
	h2.8l0,0h1.2v-1h2v-1h1v-2h2v-8h4v1.5l1.4-0.5l1.6,0.9V60h2v-8h1v-4h1v-1h2v-1h3v2h3v3h4v14h9V0H0z"/>
</svg>
