<?xml version="1.0" encoding="utf-8"?>
<!-- Generator: Adobe Illustrator 19.0.0, SVG Export Plug-In . SVG Version: 6.00 Build 0)  -->
<svg version="1.1" id="Capa_1" xmlns="http://www.w3.org/2000/svg" xmlns:xlink="http://www.w3.org/1999/xlink" x="0px" y="0px"
	 viewBox="0 0 243 50" style="enable-background:new 0 0 243 50;" xml:space="preserve">
<style type="text/css">
	.st0{fill:url(#XMLID_93_);}
	.st1{fill:url(#XMLID_94_);}
	.st2{fill-rule:evenodd;clip-rule:evenodd;fill:url(#XMLID_95_);}
	.st3{fill-rule:evenodd;clip-rule:evenodd;fill:url(#XMLID_96_);}
	.st4{fill-rule:evenodd;clip-rule:evenodd;fill:url(#XMLID_97_);}
</style>
<g id="XMLID_136_">
	<linearGradient id="XMLID_93_" gradientUnits="userSpaceOnUse" x1="137.5435" y1="38.2078" x2="137.5435" y2="26.4053">
		<stop  offset="0" style="stop-color:#808081"/>
		<stop  offset="1" style="stop-color:#9C9C9D"/>
	</linearGradient>
	<path id="XMLID_232_" class="st0" d="M69,38.2V26.3h10.3c1,0,1.9,0.1,2.7,0.2c1.1,0.2,1.9,0.7,2.4,1.6c0.4,0.7,0.6,2.1,0.6,4.2
		c0,1.3,0,2.2-0.1,2.6c-0.3,1.9-1.2,3-2.9,3.2c-0.4,0.1-1.1,0.1-2.2,0.1H69L69,38.2z M72.6,35.4h6.1c0.7,0,1.2,0,1.5-0.1
		c0.5-0.2,0.9-0.6,1-1.2c0.1-0.3,0.1-0.9,0.1-1.7c0-1.2-0.1-2-0.4-2.3c-0.3-0.5-1-0.7-2.1-0.7h-6.1V35.4L72.6,35.4z M86.5,38.2V26.3
		h3.6v11.9H86.5L86.5,38.2z M91.8,34.4h3.6c0,0.3,0,0.6,0.1,0.7c0.1,0.2,0.2,0.4,0.5,0.5c0.2,0.1,0.5,0.1,1,0.1l1.4,0
		c0.2,0,1.1,0,2.7,0c0.6,0,1.1-0.1,1.3-0.1c0.5-0.2,0.7-0.5,0.7-1c0-0.6-0.3-0.9-1-1c-0.2,0-0.8,0-1.8,0h-3.3
		c-1.6,0-2.7-0.1-3.3-0.3c-0.7-0.2-1.2-0.6-1.5-1.3c-0.2-0.5-0.3-1.1-0.3-2c0-1.4,0.3-2.3,1-2.9c0.5-0.4,1.5-0.7,3-0.9
		c0.6-0.1,1.7-0.1,3.5-0.1c2.5,0,4,0.1,4.7,0.2c0.8,0.2,1.4,0.5,1.8,1.1c0.3,0.5,0.5,1.1,0.5,2v0.4h-3.5c0-0.6-0.3-1-1-1.1
		c-0.1,0-0.7,0-1.7,0c-1.4,0-2.5,0-3.3,0.1c-0.4,0-0.7,0.1-0.9,0.2c-0.3,0.2-0.4,0.4-0.4,0.8c0,0.5,0.3,0.8,0.8,1
		c0.2,0.1,0.7,0.1,1.5,0.1h3.4c0.2,0,0.8,0,1.8,0.1c1.1,0,1.9,0.2,2.4,0.3c1,0.4,1.6,1.5,1.6,3.2c0,1.6-0.4,2.6-1.3,3.1
		c-0.8,0.4-2.9,0.7-6.3,0.7c-2.6,0-4.3-0.1-5.1-0.3c-0.8-0.2-1.3-0.5-1.7-1c-0.3-0.5-0.4-1.1-0.4-2C91.8,35,91.8,34.7,91.8,34.4
		L91.8,34.4z M112.5,38.2v-9h-5.3v-2.9h14.2v2.9h-5.3v9H112.5L112.5,38.2z M122.7,38.2V26.3h10.3c1.2,0,2,0.1,2.6,0.2
		c0.9,0.2,1.6,0.8,1.9,1.5c0.2,0.5,0.3,1.3,0.3,2.1c0,1.4-0.3,2.4-1,2.9c-0.4,0.3-1.1,0.5-2.3,0.6c0.1,0,0.3,0,0.6,0
		c0.8,0,1.4,0.2,1.7,0.3c0.6,0.4,0.9,1.1,0.9,2.3v1.9h-3.7v-1.5c0-0.9-0.3-1.4-1-1.5c-0.2,0-0.5,0-1,0h-5.6v3H122.7L122.7,38.2z
		 M126.3,32.3h5.7c0.8,0,1.2-0.1,1.5-0.1c0.4-0.2,0.6-0.6,0.6-1.2c0-0.8-0.1-1.2-0.4-1.4c-0.2-0.2-0.8-0.3-1.6-0.3h-5.8V32.3
		L126.3,32.3z M139.3,38.2V26.3h3.6v11.9H139.3L139.3,38.2z M149.4,38.2v-9h-5.3v-2.9h14.2v2.9H153v9H149.4L149.4,38.2z M159.5,26.3
		h13.2V29h-9.6v2h9.1v2.4h-9.1v2.1h9.7v2.7h-13.3V26.3L159.5,26.3z M185.6,33.7h3.5v0.5c0,1.1-0.1,1.9-0.4,2.4c-0.3,0.7-1,1.1-2,1.3
		c-0.5,0.1-1.2,0.2-2.1,0.2c-0.6,0-1.9,0-3.8,0c-1.6,0-2.7-0.1-3.5-0.2c-1.5-0.2-2.5-0.9-2.9-2.1c-0.3-0.8-0.4-2.2-0.4-4.1
		c0-1.5,0.1-2.5,0.3-3.1c0.3-1.1,1-1.8,2-2.2c0.8-0.3,2.5-0.5,4.9-0.5c3.1,0,5,0.1,5.7,0.3c0.8,0.2,1.4,0.7,1.7,1.4
		c0.2,0.5,0.4,1.2,0.4,2.2v0.4h-3.5c0-0.4-0.1-0.7-0.2-0.8c-0.2-0.3-0.7-0.5-1.6-0.6c-0.1,0-0.6,0-1.7,0c-1.7,0-2.8,0-3.1,0.1
		c-0.8,0.2-1.3,0.7-1.4,1.7c0,0.3,0,0.8,0,1.6c0,1.3,0.2,2.1,0.5,2.5c0.3,0.3,0.8,0.4,1.6,0.5c0.3,0,0.8,0,1.7,0
		c2,0,3.2-0.1,3.6-0.2C185.4,35,185.6,34.5,185.6,33.7L185.6,33.7z M190.6,38.2V26.3h3.6v4.4h8.2v-4.4h3.6v11.9h-3.6v-4.6h-8.2v4.6
		H190.6z"/>
	<linearGradient id="XMLID_94_" gradientUnits="userSpaceOnUse" x1="226.544" y1="36.4448" x2="226.544" y2="31.9846">
		<stop  offset="0" style="stop-color:#808081"/>
		<stop  offset="1" style="stop-color:#9C9C9D"/>
	</linearGradient>
	<path id="XMLID_183_" class="st1" d="M210.1,35.9h0.9v0.2c0,0.3,0,0.6,0.1,0.7c0.1,0.2,0.3,0.4,0.5,0.5c0.4,0.1,1.3,0.2,2.6,0.2
		c1.4,0,2.4-0.1,2.8-0.3c0.4-0.2,0.6-0.6,0.6-1.1c0-0.6-0.2-0.9-0.7-1c-0.4-0.1-1-0.2-1.9-0.2c-0.6,0-1.3,0-1.9,0
		c-0.5,0-0.9,0-1.2-0.1c-0.5-0.1-0.9-0.2-1.1-0.4c-0.4-0.3-0.6-0.8-0.6-1.4c0-0.8,0.2-1.3,0.6-1.6c0.3-0.3,1-0.5,1.8-0.6
		c0.4,0,1.1-0.1,2-0.1c1.6,0,2.6,0.1,3.1,0.4c0.3,0.2,0.5,0.4,0.6,0.8c0.1,0.2,0.1,0.5,0.1,1h-0.9c0-0.5-0.1-0.9-0.4-1
		c-0.3-0.2-1.2-0.4-2.6-0.4c-1.3,0-2.3,0.1-2.8,0.2c-0.5,0.1-0.7,0.5-0.7,1.2c0,0.5,0.2,0.8,0.5,0.9c0.2,0.1,0.7,0.2,1.4,0.2
		c0.1,0,0.6,0,1.4,0c1.2,0,2.1,0,2.5,0.1c0.6,0.1,1.1,0.3,1.3,0.5c0.3,0.3,0.4,0.8,0.4,1.4c0,0.6-0.1,1.1-0.4,1.4
		c-0.3,0.3-0.7,0.6-1.2,0.7c-0.5,0.1-1.3,0.1-2.5,0.1c-1.6,0-2.7-0.1-3.2-0.3c-0.7-0.2-1-0.8-1-1.6V35.9L210.1,35.9z M218.9,38.2V37
		h1.1v1.2H218.9L218.9,38.2z M228.6,36.5h-6l-1,1.7h-1l4.3-7.3h1.3l4.3,7.3h-1L228.6,36.5L228.6,36.5z M228.1,35.8l-2.6-4.4
		l-2.6,4.4H228.1L228.1,35.8z M231.2,38.2V37h1.1v1.2H231.2L231.2,38.2z M233,35.9h0.9v0.2c0,0.3,0,0.6,0.1,0.7
		c0.1,0.2,0.3,0.4,0.5,0.5c0.4,0.1,1.3,0.2,2.6,0.2c1.4,0,2.4-0.1,2.8-0.3c0.4-0.2,0.6-0.6,0.6-1.1c0-0.6-0.2-0.9-0.7-1
		c-0.4-0.1-1-0.2-1.9-0.2c-0.6,0-1.3,0-1.9,0c-0.5,0-0.9,0-1.2-0.1c-0.5-0.1-0.9-0.2-1.1-0.4c-0.4-0.3-0.6-0.8-0.6-1.4
		c0-0.8,0.2-1.3,0.6-1.6c0.3-0.3,1-0.5,1.8-0.6c0.4,0,1.1-0.1,2-0.1c1.6,0,2.6,0.1,3.1,0.4c0.3,0.2,0.5,0.4,0.6,0.8
		c0.1,0.2,0.1,0.5,0.1,1h-0.9c0-0.5-0.1-0.9-0.4-1c-0.3-0.2-1.2-0.4-2.6-0.4c-1.3,0-2.3,0.1-2.8,0.2c-0.5,0.1-0.7,0.5-0.7,1.2
		c0,0.5,0.2,0.8,0.5,0.9c0.2,0.1,0.7,0.2,1.4,0.2c0.1,0,0.6,0,1.4,0c1.2,0,2.1,0,2.5,0.1c0.6,0.1,1.1,0.3,1.3,0.5
		c0.3,0.3,0.4,0.8,0.4,1.4c0,0.6-0.1,1.1-0.4,1.4c-0.3,0.3-0.7,0.6-1.2,0.7c-0.5,0.1-1.3,0.1-2.5,0.1c-1.6,0-2.7-0.1-3.2-0.3
		c-0.7-0.2-1-0.8-1-1.6V35.9L233,35.9z M241.9,38.2V37h1.1v1.2H241.9z"/>
	<radialGradient id="XMLID_95_" cx="23.8551" cy="11.4682" r="45.4208" gradientUnits="userSpaceOnUse">
		<stop  offset="0" style="stop-color:#81A0D3"/>
		<stop  offset="0.2663" style="stop-color:#6585C3"/>
		<stop  offset="0.5678" style="stop-color:#344B80"/>
		<stop  offset="0.8291" style="stop-color:#223256"/>
		<stop  offset="0.8558" style="stop-color:#27385E"/>
		<stop  offset="0.8961" style="stop-color:#334872"/>
		<stop  offset="0.9449" style="stop-color:#486194"/>
		<stop  offset="1" style="stop-color:#6585C3"/>
	</radialGradient>
	<path id="XMLID_146_" class="st2" d="M29.4,1.7c-0.3,0.5-0.7,2.5,0.2,2.4c0.7-0.1,2,0.1,2.1,0.7c0.3,1.1-1,1.6,0.3,2.8
		c1,1,1.1-0.2,2.3,0.2c1,0.5,0,1.3,0.8,0.8c0.2-0.2,0.6,0,0.3,0.2C35,9.1,34.9,9,35.1,9.3c0.1,0.2,0.1,0.2,0,0.4
		c-0.1,0.2-0.1,0.3-0.1,0.5c0.1,0.2,0.3,0.4,0.5,0.1c0.1-0.1,0-0.3-0.1-0.4c-0.1-0.2-0.1-0.4,0.1-0.5c0.5-0.3,0.2-0.8,0.8-0.5
		c1,0.7,1.9,1,3.2,1.1c0.8,0,1.7,0,2.3,1.5c0.5,1.2,1.5,0.4,2.3,0.8c0.6,0.2,1.5,1.4,1.9,2c0.6,0.8-0.1,1-0.5,1.4
		c4.7-2.1,9.2-3.9,13.4-5.4c-2.8-3.9-6.8-7-11.4-8.7C41.7-0.6,35.2-0.5,29.4,1.7L29.4,1.7z M48.8,16.2c3.7-1.9,7.3-3.7,10.6-5.1
		c1.8,2.7,3.1,5.9,3.8,9.1c0.3,1.6,0.5,3.2,0.5,4.9c0,13.8-11.2,25-25,25c-9.6,0-17.9-5.4-22.1-13.3c4-3.5,10.2-7.9,17.3-12.1
		c0.7,0.4,1.6,0.8,2,1.4c0.9,1.5-0.4,5.3-0.5,7.6c-0.1,0.9,0,1.3-0.2,2.1c-0.4,1.3-0.5,1.6-0.5,2c-0.1,0.7-0.7,2.2-0.3,2.8
		c0.1,0.1,0.1,0.2,0.3,0.1c0.7-0.3,0.2,1,0.1,1.4c-0.3,1.9-0.4,2.1-0.6,2.4c-0.3,0.5,0.7,7.3,2.7,3.6c0.2-0.3-0.6-0.5,0-1.3
		c0.4-0.5,2.1-2.1,1.3-2.4C37,44,37.4,43.6,37.8,43c0.4-0.7,0.9-2.2,1.5-3.3c0.9-1.6,2.4-0.3,3.1-1.4c0.7-1.2,0-1.7,1.5-2.1
		c1.1-0.3,2.3-3.2,2.4-3.3c1.2-2.1,0.6-2.3,3.1-3.6c1.7-0.8,1.5-1.4,1.9-3.9c0.1-0.6,0.2-1.2,0.4-1.8c0.2-0.8,0.5-0.8,1-1.4
		c0.6-0.7,1.2-1.8,1.2-2c0.2-1.6-0.5-1.1-1.2-1.6C51.8,17.7,50.2,16.5,48.8,16.2L48.8,16.2z M32.3,21.9c-5.7,2.8-10.9,5.6-15.4,8.3
		c0.1-0.3,0.2-0.6,0.3-1.1c0.3-1.1,0.6-1.6,1.4-2.4c0.5-0.5,1.1-1.3,1.1-1.5c0.4-1.3-3.4-3.5-4.5-3.6c-0.4-0.1-0.5,0-0.7,0.3
		c-0.2,0.2-0.5,0.3-0.7,0.2c0.9-7.4,4.9-13.9,10.9-17.8c0.7-0.4,0.9-0.4,1.4-0.3c0.8,0.3,1.1,1,1.9,1.3c1.2,0.4,1.3,0.2,1.7,0.7
		c0.6,0.7,1.5,2.4,2.5,2.6c0.3,0,0.5,0.1,0.6,0.3c0.2,0.3,0.6,0.1,0.4-0.1c-0.5-0.5,1-1,1.1-0.2c0,0.3,0.1,0.7-0.3,0.8
		c-0.4,0.1-0.8,0-1,0.5c-0.2,0.9-1,1-0.8,2.1c0.1,0.6-0.3,1.9-0.6,2.3c-0.7,1-2,2.2-1.4,2.8c0.1,0.1,0.2,0.1,0.4,0.1
		c0.6-0.1,0.2,0.4,0,0.6c-0.3,0.2-0.6,0.4-0.5,0.9c0.1,0.8,0.4,0.5,1,1.5C31.4,20.5,31.9,21.2,32.3,21.9z"/>
	<linearGradient id="XMLID_96_" gradientUnits="userSpaceOnUse" x1="-0.6644" y1="43.2039" x2="81.0394" y2="5.9228">
		<stop  offset="0" style="stop-color:#D9D9D9"/>
		<stop  offset="0.5075" style="stop-color:#F5F5F5"/>
		<stop  offset="1" style="stop-color:#C6C6C5"/>
	</linearGradient>
	<path id="XMLID_145_" class="st3" d="M0.3,44.2c1.2,1.9,8.5,0.7,19.4-3l-0.1-0.1c-6.6,2.3-11,3.1-11.8,1.7
		c-1.5-2.8,12.4-13,31.1-22.8C57.5,10.1,73.8,4.4,75.2,7.2c0.9,1.7-4,6.2-12.3,11.8c0.2,0.8,0.4,1.6,0.5,2.4
		C75.9,14.3,84.1,7.9,82.7,5.8C80.9,3,71,5.1,58.7,9.5C33,18.9-3.4,38.3,0.3,44.2z"/>
	<linearGradient id="XMLID_97_" gradientUnits="userSpaceOnUse" x1="0.5393" y1="43.2858" x2="82.4247" y2="5.7021">
		<stop  offset="0" style="stop-color:#2E2E2E"/>
		<stop  offset="0.1859" style="stop-color:#868789"/>
		<stop  offset="0.5377" style="stop-color:#868789"/>
		<stop  offset="0.5842" style="stop-color:#7F8081"/>
		<stop  offset="0.6545" style="stop-color:#6B6B6D"/>
		<stop  offset="0.7394" style="stop-color:#4B4A4B"/>
		<stop  offset="0.7437" style="stop-color:#494849"/>
		<stop  offset="1" style="stop-color:#868789"/>
	</linearGradient>
	<path id="XMLID_137_" class="st4" d="M38.6,18.9c-22.8,10.6-40,22-38.4,25.4c1,2,8.5,0.7,19.4-3l-0.1-0.1c-6.6,2.3-11,3.1-11.8,1.7
		c-1.5-2.8,12.4-13,31.1-22.8C57.5,10.1,73.8,4.4,75.2,7.2c0.9,1.7-4,6.2-12.3,11.8c0.2,0.8,0.4,1.6,0.5,2.4
		C75.9,14.3,83.8,8.1,82.7,5.8C81.2,2.4,61.4,8.2,38.6,18.9z"/>
</g>
</svg>
